<?xml version="1.0" encoding="UTF-8"?>
<svg xmlns="http://www.w3.org/2000/svg" version="1.1" viewBox="0 0 998.5 479">
  <defs>
    <style>
      .cls-1 {
        fill: #e6e6e6;
      }

      .cls-2 {
        fill: #7bc47d;
      }

      .cls-3 {
        fill: #96cc7c;
      }

      .cls-4 {
        fill: #3f3d56;
      }

      .cls-5 {
        fill: #ccc;
      }

      .cls-6 {
        fill: #94cc7c;
      }

      .cls-7 {
        fill: #9ed3ab;
      }
    </style>
  </defs>
  <!-- Generator: Adobe Illustrator 28.6.0, SVG Export Plug-In . SVG Version: 1.2.0 Build 709)  -->
  <g>
    <g id="Layer_1">
      <path class="cls-5" d="M883.5,476.5l3.4-63.3s111.6-23.1,111.6-89.8-182.4-74.9-200.7-44.2c-.2.3-.4.6-.5.9-22.7,38.3-9.9,88,28.7,110.1,13.2,7.6,28.9,14,47.3,17.6l-1.3,67.2"/>
      <circle class="cls-7" cx="843" cy="202.5" r="28.7"/>
      <circle class="cls-2" cx="58.8" cy="162" r="19.5"/>
      <circle class="cls-2" cx="89.4" cy="366" r="36.4"/>
      <circle class="cls-3" cx="326.5" cy="37.1" r="21.1"/>
      <circle class="cls-6" cx="780" cy="68" r="63"/>
      <path class="cls-1" d="M687.1,461.5l-71.1-4.5-3.8-319.5c0-7.8,3-15.3,8.5-20.8l76.1-76.1c10.7-10.7,27.4-11.4,39-1.8l82.6,68.7c6.7,5.6,10.5,13.8,10.4,22.6l-2.8,240.3,35.9,49.9h0c0,.1,6.1,52.8,6.1,52.8l-181-11.5Z"/>
      <path class="cls-7" d="M699,114.9v-14.8c0-3.9,3.2-7.1,7.1-7.1h20.8c3.9,0,7.1,3.2,7.1,7.1v14.8c0,3.9-3.2,7.1-7.1,7.1h-20.8c-3.9,0-7.1-3.2-7.1-7.1Z"/>
      <path class="cls-4" d="M655,229.9v-54.8c0-3.9,3.2-7.1,7.1-7.1h30.8c3.9,0,7.1,3.2,7.1,7.1v54.8c0,3.9-3.2,7.1-7.1,7.1h-30.8c-3.9,0-7.1-3.2-7.1-7.1Z"/>
      <path class="cls-4" d="M724.7,358.2c-3.7-.1-6.7-3.2-6.8-6.9l-1.6-53c0-2.3.9-4.4,2.7-5.8,1.8-1.4,4-1.9,6.2-1.3l1.6.4c3.1.8,5.3,3.6,5.3,6.9v52.6c0,1.9-.8,3.8-2.2,5.1-1.3,1.3-3.1,2-4.9,2s-.2,0-.3,0Z"/>
      <path class="cls-4" d="M630.2,356.3c-1.4-1.3-2.2-3.2-2.2-5.1v-52.6c0-3.2,2.2-6,5.3-6.9l1.6-.4c2.2-.6,4.5-.1,6.2,1.3,1.8,1.4,2.8,3.5,2.7,5.8l-1.6,53c-.1,3.7-3.1,6.7-6.8,6.9,0,0-.2,0-.3,0-1.8,0-3.6-.7-4.9-2Z"/>
      <path class="cls-4" d="M660,350.9v-55c0-3.9,3-7,6.9-7.1l28-.7c3.9,0,7.1,3,7.3,6.9l1.6,55.7c0,1.9-.7,3.8-2,5.1-1.3,1.4-3.2,2.2-5.1,2.2h-29.6c-3.9,0-7.1-3.2-7.1-7.1Z"/>
      <path class="cls-5" d="M825.5,388.5l22,39,2.5,43.9,17.5,1.1-6-52-36-50h0c-3.1,5.6-3.1,12.4,0,18Z"/>
      <rect class="cls-4" x="778.1" y="459.3" width="71.3" height="1" transform="translate(-6.2 11.2) rotate(-.8)"/>
      <rect class="cls-4" x="777.4" y="450.3" width="67.6" height="1" transform="translate(-3.5 6.4) rotate(-.4)"/>
      <rect class="cls-4" x="776.9" y="441.6" width="64.6" height="1" transform="translate(-8.5 15.9) rotate(-1.1)"/>
      <rect class="cls-4" x="777.4" y="433.1" width="62.1" height="1" transform="translate(-13.9 27.1) rotate(-1.9)"/>
      <rect class="cls-4" x="776.9" y="425.1" width="59.7" height="1" transform="translate(-14.5 28.6) rotate(-2)"/>
      <rect class="cls-4" x="774.4" y="417" width="58.1" height="1"/>
      <rect class="cls-4" x="773.1" y="410.3" width="56.4" height="1" transform="translate(-4.8 9.4) rotate(-.7)"/>
      <rect class="cls-4" x="771.8" y="403.9" width="54.7" height="1" transform="translate(-13 26.7) rotate(-1.9)"/>
      <rect class="cls-4" x="770.5" y="396.5" width="54" height="1" transform="translate(-6.9 14.1) rotate(-1)"/>
      <rect class="cls-4" x="768.8" y="389.9" width="51.7" height="1" transform="translate(-11.8 25) rotate(-1.8)"/>
      <rect class="cls-4" x="767.2" y="383.3" width="51.3" height="1" transform="translate(-3.7 7.8) rotate(-.6)"/>
      <path class="cls-2" d="M763.5,362.4v-67.8c0-3.9,3.2-7.1,7.1-7.1h32.8c3.9,0,7.1,3.2,7.1,7.1v67.8c0,3.9-3.2,7.1-7.1,7.1h-32.8c-3.9,0-7.1-3.2-7.1-7.1Z"/>
      <path class="cls-5" d="M687.1,461.5l-58.1-3.7h-.5v-45c0-5.7,4.6-10.3,10.3-10.3h57.4c5.7,0,10.3,4.6,10.3,10.3v48.7h-19.4Z"/>
      <path class="cls-4" d="M767.5,239.4v-51.8c0-3.9,3.2-7.1,7.1-7.1h10.8c3.9,0,7.1,3.2,7.1,7.1v51.8c0,3.9-3.2,7.1-7.1,7.1h-10.8c-3.9,0-7.1-3.2-7.1-7.1Z"/>
      <path class="cls-5" d="M778.5,466.5l-3-44-9-42-2.5-11.5h0c-5.1-3.5-12.1.4-11.7,6.6l.2,4.9,9,42,3,44"/>
      <path class="cls-1" d="M438.1,445.5l-71.1-4.5-3.8-319.5c0-7.8,3-15.3,8.5-20.8l76.1-76.1c10.7-10.7,27.4-11.4,39-1.8l82.6,68.7c6.7,5.6,10.5,13.8,10.4,22.6l-2.8,240.3,35.9,49.9h0c0,.1,6.1,52.8,6.1,52.8l-181-11.5h0Z"/>
      <path class="cls-2" d="M450,98.9v-14.8c0-3.9,3.2-7.1,7.1-7.1h20.8c3.9,0,7.1,3.2,7.1,7.1v14.8c0,3.9-3.2,7.1-7.1,7.1h-20.8c-3.9,0-7.1-3.2-7.1-7.1Z"/>
      <path class="cls-4" d="M406,213.9v-54.8c0-3.9,3.2-7.1,7.1-7.1h30.8c3.9,0,7.1,3.2,7.1,7.1v54.8c0,3.9-3.2,7.1-7.1,7.1h-30.8c-3.9,0-7.1-3.2-7.1-7.1Z"/>
      <path class="cls-4" d="M470.6,277.4c-1.5,1.2-2.4,3-2.3,5l1.6,53c0,3.2,2.7,5.8,5.9,5.9,1.7,0,3.2-.5,4.4-1.7,1.2-1.2,1.9-2.7,1.9-4.4v-52.6c0-2.8-1.9-5.2-4.5-5.9l-1.6-.4c-.5-.1-1.1-.2-1.6-.2-1.4,0-2.7.5-3.8,1.3Z"/>
      <path class="cls-4" d="M381.2,340.3c-1.4-1.3-2.2-3.2-2.2-5.1v-52.6c0-3.2,2.2-6,5.3-6.9l1.6-.4c2.2-.6,4.5-.1,6.2,1.3,1.8,1.4,2.8,3.5,2.7,5.8l-1.6,53c-.1,3.7-3.1,6.7-6.8,6.9,0,0-.2,0-.3,0-1.8,0-3.6-.7-4.9-2Z"/>
      <path class="cls-4" d="M411,334.9v-55c0-3.9,3-7,6.9-7.1l28-.7c0,0,.1,0,.2,0,3.8,0,7,3.1,7.1,6.9l1.6,55.7c0,1.9-.7,3.8-2,5.1-1.3,1.4-3.2,2.2-5.1,2.2h-29.6c-3.9,0-7.1-3.2-7.1-7.1Z"/>
      <path class="cls-5" d="M576.5,372.5l22,39,2.5,43.9,17.5,1.1-6-52-36-50h0c-3.1,5.6-3.1,12.4,0,18Z"/>
      <rect class="cls-4" x="529.1" y="443.3" width="71.3" height="1" transform="translate(-6 7.8) rotate(-.8)"/>
      <rect class="cls-4" x="528.4" y="434.3" width="67.6" height="1" transform="translate(-3.4 4.4) rotate(-.4)"/>
      <rect class="cls-4" x="527.9" y="425.6" width="64.6" height="1" transform="translate(-8.2 11) rotate(-1.1)"/>
      <rect class="cls-4" x="528.4" y="417.1" width="62.1" height="1" transform="translate(-13.5 18.8) rotate(-1.9)"/>
      <rect class="cls-4" x="527.9" y="409.1" width="59.7" height="1" transform="translate(-14 19.8) rotate(-2)"/>
      <rect class="cls-4" x="525.4" y="401" width="58.1" height="1"/>
      <rect class="cls-4" x="524.1" y="394.3" width="56.4" height="1" transform="translate(-4.6 6.5) rotate(-.7)"/>
      <rect class="cls-4" x="522.8" y="387.9" width="54.7" height="1" transform="translate(-12.6 18.5) rotate(-1.9)"/>
      <rect class="cls-4" x="521.5" y="380.5" width="54" height="1" transform="translate(-6.6 9.7) rotate(-1)"/>
      <rect class="cls-4" x="519.8" y="373.9" width="51.7" height="1" transform="translate(-11.4 17.2) rotate(-1.8)"/>
      <rect class="cls-4" x="518.2" y="367.3" width="51.3" height="1" transform="translate(-3.6 5.3) rotate(-.6)"/>
      <path class="cls-7" d="M514.5,346.4v-67.8c0-3.9,3.2-7.1,7.1-7.1h32.8c3.9,0,7.1,3.2,7.1,7.1v67.8c0,3.9-3.2,7.1-7.1,7.1h-32.8c-3.9,0-7.1-3.2-7.1-7.1Z"/>
      <path class="cls-5" d="M438.1,445.5l-58.1-3.7h-.5v-45c0-5.7,4.6-10.3,10.3-10.3h57.4c5.7,0,10.3,4.6,10.3,10.3v48.7h-19.4Z"/>
      <path class="cls-4" d="M518.5,223.4v-51.8c0-3.9,3.2-7.1,7.1-7.1h10.8c3.9,0,7.1,3.2,7.1,7.1v51.8c0,3.9-3.2,7.1-7.1,7.1h-10.8c-3.9,0-7.1-3.2-7.1-7.1Z"/>
      <path class="cls-5" d="M529.5,450.5l-3-44-9-42-2.5-11.5h0c-5.1-3.5-12.1.4-11.7,6.6l.2,4.9,9,42,3,44"/>
      <path class="cls-1" d="M189.1,429.5l-71.1-4.5-3.8-319.5c0-7.8,3-15.3,8.5-20.8L198.8,8.5c10.7-10.7,27.4-11.4,39-1.8l82.6,68.7c6.7,5.6,10.5,13.8,10.4,22.6l-2.8,240.3,35.9,49.9h0c0,.1,6.1,52.8,6.1,52.8l-181-11.5Z"/>
      <path class="cls-7" d="M201,82.9v-14.8c0-3.9,3.2-7.1,7.1-7.1h20.8c3.9,0,7.1,3.2,7.1,7.1v14.8c0,3.9-3.2,7.1-7.1,7.1h-20.8c-3.9,0-7.1-3.2-7.1-7.1Z"/>
      <path class="cls-4" d="M157,197.9v-54.8c0-3.9,3.2-7.1,7.1-7.1h30.8c3.9,0,7.1,3.2,7.1,7.1v54.8c0,3.9-3.2,7.1-7.1,7.1h-30.8c-3.9,0-7.1-3.2-7.1-7.1Z"/>
      <path class="cls-4" d="M226.7,326.2c-3.7-.1-6.7-3.2-6.8-6.9l-1.6-53c0-2.3.9-4.4,2.7-5.8s4-1.9,6.2-1.3l1.6.4c3.1.8,5.3,3.6,5.3,6.9v52.6c0,1.9-.8,3.8-2.2,5.1-1.3,1.3-3.1,2-4.9,2s-.2,0-.3,0Z"/>
      <path class="cls-4" d="M135.4,260.2l1.6-.4c4.3-1.1,8.4,2.2,8.3,6.6l-1.6,53c-.1,3.5-2.9,6.3-6.4,6.4h0c-3.7.1-6.8-2.9-6.8-6.6v-52.6c0-3,2-5.6,4.9-6.4h0Z"/>
      <path class="cls-4" d="M162,318.9v-55c0-3.9,3-7,6.9-7.1l28-.7c3.9,0,7.1,3,7.3,6.9l1.6,55.7c0,1.9-.7,3.8-2,5.1-1.3,1.4-3.2,2.2-5.1,2.2h-29.6c-3.9,0-7.1-3.2-7.1-7.1Z"/>
      <path class="cls-5" d="M327.5,356.5l22,39,2.5,43.9,17.5,1.1-6-52-36-50h0c-3.1,5.6-3.1,12.4,0,18Z"/>
      <rect class="cls-4" x="280.1" y="427.3" width="71.3" height="1" transform="translate(-5.8 4.4) rotate(-.8)"/>
      <rect class="cls-4" x="279.4" y="418.3" width="67.6" height="1" transform="translate(-3.3 2.5) rotate(-.4)"/>
      <rect class="cls-4" x="278.9" y="409.6" width="64.6" height="1" transform="translate(-7.9 6.2) rotate(-1.1)"/>
      <rect class="cls-4" x="279.4" y="401.1" width="62.1" height="1" transform="translate(-13.2 10.5) rotate(-1.9)"/>
      <rect class="cls-4" x="278.9" y="393.1" width="59.7" height="1" transform="translate(-13.6 11.1) rotate(-2)"/>
      <rect class="cls-4" x="276.4" y="385" width="58.1" height="1"/>
      <rect class="cls-4" x="275.1" y="378.3" width="56.4" height="1" transform="translate(-4.4 3.6) rotate(-.7)"/>
      <rect class="cls-4" x="273.8" y="371.9" width="54.7" height="1" transform="translate(-12.2 10.2) rotate(-1.9)"/>
      <rect class="cls-4" x="272.5" y="364.5" width="54" height="1" transform="translate(-6.4 5.3) rotate(-1)"/>
      <rect class="cls-4" x="270.8" y="357.9" width="51.7" height="1" transform="translate(-11.1 9.4) rotate(-1.8)"/>
      <rect class="cls-4" x="269.2" y="351.3" width="51.3" height="1" transform="translate(-3.4 2.9) rotate(-.6)"/>
      <path class="cls-2" d="M265.5,330.4v-67.8c0-3.9,3.2-7.1,7.1-7.1h32.8c3.9,0,7.1,3.2,7.1,7.1v67.8c0,3.9-3.2,7.1-7.1,7.1h-32.8c-3.9,0-7.1-3.2-7.1-7.1Z"/>
      <path class="cls-5" d="M189.1,429.5l-58.1-3.7h-.5v-45c0-5.7,4.6-10.3,10.3-10.3h57.4c5.7,0,10.3,4.6,10.3,10.3v48.7h-19.4Z"/>
      <path class="cls-4" d="M269.5,207.4v-51.8c0-3.9,3.2-7.1,7.1-7.1h10.8c3.9,0,7.1,3.2,7.1,7.1v51.8c0,3.9-3.2,7.1-7.1,7.1h-10.8c-3.9,0-7.1-3.2-7.1-7.1Z"/>
      <path class="cls-5" d="M280.5,434.5l-3-44-9-42-2.5-11.5h0c-5.1-3.5-12.1.4-11.7,6.6l.2,4.9,9,42,3,44"/>
      <path class="cls-5" d="M97.5,423.5l3.4-63.3s111.6-23.1,111.6-89.8S30.1,195.6,11.8,226.2c-.2.3-.4.6-.5.9-22.7,38.3-9.9,88,28.7,110.1,13.2,7.6,28.9,14,47.3,17.6l-1.3,67.2"/>
      <rect class="cls-5" x="479.1" y="-7.4" width="2" height="911.8" transform="translate(1.5 898.7) rotate(-86.3)"/>
    </g>
  </g>
</svg>