<?xml version="1.0" encoding="UTF-8"?>
<svg id="Layer_1" xmlns="http://www.w3.org/2000/svg" width="1246.67" height="1186.07" viewBox="0 0 1246.67 1186.07">
  <defs>
    <style>
      .cls-1 {
        fill: #2f2e69;
      }

      .cls-1, .cls-2 {
        stroke: #231f20;
        stroke-miterlimit: 10;
      }

      .cls-2 {
        fill: #2e2e69;
      }
    </style>
  </defs>
  <path class="cls-2" d="M724.63,29.26c-78.53,35.91-177.89,122-170.51,221.17,11.32,152.11,267.93,256.33,372.36,195.2,57.22-33.49,36.93-98,112.38-163.42,93.22-80.83,198.87-47.12,206.84-80.78,14.06-59.43-288.17-278.69-521.07-172.18Z"/>
  <path class="cls-1" d="M700.43,884.16c-14-129.26-215.08-197.89-239.58-206.25-53.4-18.23-192.85-65.82-316.67,14.58C51.58,752.62-28.73,882.04,10.84,1004.99c50.21,156,253.47,177.59,270.83,179.17,206.47,18.78,434.56-154.07,418.75-300Z"/>
</svg>