<?xml version="1.0" encoding="UTF-8"?>
<svg xmlns="http://www.w3.org/2000/svg" version="1.1" viewBox="0 0 552.8 515.5">
  <defs>
    <style>
      .cls-1 {
        fill: #9ed37b;
      }

      .cls-2 {
        fill: #2f2e41;
      }

      .cls-3 {
        fill: #7bc47d;
      }

      .cls-4 {
        fill: #9ee6ab;
      }

      .cls-5 {
        fill: #3f3d56;
      }

      .cls-6 {
        fill: #12b981;
      }

      .cls-7 {
        fill: #f2f2f2;
      }

      .cls-8 {
        fill: #a0616a;
      }
    </style>
  </defs>
  <!-- Generator: Adobe Illustrator 28.6.0, SVG Export Plug-In . SVG Version: 1.2.0 Build 709)  -->
  <g>
    <g id="Layer_1">
      <path class="cls-7" d="M372.6,365.4h-198.3c-16.7,0-30.2-13.6-30.2-30.2v-198.3c0-16.7,13.6-30.2,30.2-30.2h198.3c16.7,0,30.2,13.6,30.2,30.2v198.3c0,16.7-13.6,30.2-30.2,30.2ZM174.3,111.5c-14,0-25.4,11.4-25.4,25.4v198.3c0,14,11.4,25.4,25.4,25.4h138.9c46.8,0,84.8-38,84.8-84.8v-138.9c0-14-11.4-25.4-25.4-25.4,0,0-198.3,0-198.3,0Z"/>
      <path class="cls-7" d="M195.7,132.1c-9.4,0-17,7.6-17,17v26.6c0,9.4,7.6,17,17,17h26.6c9.4,0,17-7.6,17-17v-26.6c0-9.4-7.6-17-17-17h-26.6Z"/>
      <path class="cls-7" d="M195.7,207.1c-9.4,0-17,7.6-17,17v26.6c0,9.4,7.6,17,17,17h26.6c9.4,0,17-7.6,17-17v-26.6c0-9.4-7.6-17-17-17h-26.6Z"/>
      <path class="cls-7" d="M195.7,282.1c-9.4,0-17,7.6-17,17v26.6c0,9.4,7.6,17,17,17h26.6c9.4,0,17-7.6,17-17v-26.6c0-9.4-7.6-17-17-17h-26.6Z"/>
      <path class="cls-3" d="M213.4,67.1c-11.8,0-21.4,9.6-21.4,21.4v33.6c0,11.8,9.6,21.4,21.4,21.4h33.6c11.8,0,21.4-9.6,21.4-21.4v-33.6c0-11.8-9.6-21.4-21.4-21.4h-33.6,0Z"/>
      <path class="cls-4" d="M323.9,160.9c-11.8,0-21.4,9.6-21.4,21.4v33.6c0,11.8,9.6,21.4,21.4,21.4h33.6c11.8,0,21.4-9.6,21.4-21.4v-33.6c0-11.8-9.6-21.4-21.4-21.4h-33.6Z"/>
      <g>
        <polygon class="cls-8" points="275.8 498.8 269 498.8 266 471.8 276.1 471.9 275.8 498.8"/>
        <path class="cls-2" d="M254,509.7c0,1.7,1.3,3.1,3,3.1h13.6c0,.1,2.4-4.7,2.4-4.7l.9,4.8h5.1s-1.3-17.2-1.3-17.2h-1.8c0-.1-7.3-.6-7.3-.6l-2.3-.2v4.9s-10.9,7.4-10.9,7.4c-.8.6-1.3,1.5-1.3,2.5h0Z"/>
      </g>
      <g>
        <polygon class="cls-8" points="310.5 498.8 303.7 498.8 300.7 471.8 310.8 471.9 310.5 498.8"/>
        <path class="cls-2" d="M288.7,509.7c0,1.7,1.3,3.1,3,3.1h13.6c0,.1,2.4-4.7,2.4-4.7l.9,4.8h5.1s-1.3-17.2-1.3-17.2h-1.8c0-.1-7.3-.6-7.3-.6l-2.3-.2v4.9s-10.9,7.4-10.9,7.4c-.8.6-1.3,1.5-1.3,2.5h0Z"/>
      </g>
      <path class="cls-2" d="M249.1,281.2l27.6.9,26.2,5.8s-2.6,3.2,6.1,11.9c0,0,11.6,20.4,3.5,40.2l-3.5,79.1s10.2,55.8,2.4,73.6l-10.3.6-17.4-73.5-8.5-79.2-4.1,78s15.6,53.5,5.7,74.8l-11.1-.6-19.1-74.1s-8.1-85.5-7-101.8c1.2-16.3,9.3-35.5,9.3-35.5h0Z"/>
      <g>
        <path class="cls-8" d="M341.9,156.1c-3.8,1-6,4.8-5.1,8.6.4,1.7,1.5,3.1,2.9,4.1h0s-.5,13-.5,13l9.9,4.6.8-20h0c.9-1.5,1.2-3.4.7-5.2-1-3.8-4.8-6-8.6-5.1h0Z"/>
        <path class="cls-5" d="M286.4,202.5c-2.1-2.1-3.3-4.9-3.3-7.9,0-4.1,2-7.8,5.5-9.9,4-2.5,9.1-2.2,12.8.6l31.2,23.5,5.6-33.8,11.9,3.8-2.8,44.1c-.2,3.1-1.9,5.8-4.7,7.3-2.7,1.5-5.9,1.4-8.6,0l-45.1-25.7c-.9-.5-1.7-1.1-2.4-1.8h0Z"/>
      </g>
      <g>
        <path class="cls-8" d="M238.8,137.2c2,3.4.9,7.7-2.5,9.7-1.5.9-3.3,1.2-4.9.9h0s-8.8,9.6-8.8,9.6l-10.3-3.7,13.5-14.7h0c.5-1.6,1.6-3.2,3.2-4.1,3.4-2,7.7-.9,9.7,2.5Z"/>
        <path class="cls-5" d="M242.6,208.8l-50.1-13.5c-3-.8-5.3-3.1-6.2-6s-.2-6.1,1.8-8.4l29-33.3,11.2,5.7-19.9,27.9,38.7,5.3c4.7.6,8.4,4,9.6,8.6,1,4-.2,8.1-3.1,10.9-2.2,2.1-5,3.3-8,3.3-1,0-2-.1-3-.4h0Z"/>
      </g>
      <path class="cls-5" d="M314,292.8l-70,3.2c-1.9-2.9-1.4-7.3,1.3-12.8,10.2-20.8,2.4-60.1-2.7-80.5-1.5-5.7,2.5-11.4,8.3-12l6.6-.7,6.1-18.6h21.4l8.9,10.1,15.1,9.1c-2.7,28.2-14.4,68.1,2.2,88.1,3.6,4.4,4.7,9.1,2.9,14.1h0Z"/>
      <circle class="cls-8" cx="271.5" cy="151" r="20.8"/>
      <path class="cls-2" d="M295.1,137.7c2.9-10.6-28.7-19.6-34.8-11.1-.9-1.2-4-1.9-5.5-1.6-1.4.4-2.7,1.3-3.9,2.2-1.6,1.3-3.3,2.6-4.3,4.4-1,1.8-1.2,4.2.2,5.8,1.1,1.2,3,7.8,4.6,8.1,1.1.2,2.1.4,2.9.5.7-1.1,2.6-2.4,2.4-3.7,1.1.7.7,2,.5,3.3-.7,4.4-17.3,38.1-7.8,28.1.9.6,2.1,1.1,3.5,1.6,2.3-3.4,4.1-7.5,5.4-11.7h0c.4,3.8,3.1,6.8,6.7,7.8,14.3,4.1,25.8-1.9,29.8-12.9-1.5-3-2.1-2.6-2-2.7,1.8-1.2,4.3-.4,5.1,1.6.2.6.4,1.1.6,1.5,2.1-7.4,4.5-6.3-3.4-21.3h0Z"/>
      <path class="cls-2" d="M285.2,130l-1.5-7.5c-.1-.6-.2-1.3,0-1.9.4-.7,1.3-1,2.1-.9.8.1,1.4.9,2.2,1,2.8.5,6.5-2.3,7.5,4.7.4,2.9,5.1,3.2,6.7,5.7s1.8,6.1-.4,8.2c-1.7,1.6-4.4,1.8-6.6,1-2.2-.8-4-2.5-5.5-4.3s-3-3.7-4.7-5.3"/>
      <path class="cls-6" d="M296.2,141.3c-5.7-.8-9.6-2.9-11.5-6.2-2.6-4.3-.8-9.1-.8-9.3l1.2.4s-1.6,4.4.7,8.2c1.8,2.9,5.3,4.8,10.6,5.5l-.2,1.3Z"/>
      <ellipse class="cls-4" cx="296.4" cy="58" rx="13.3" ry="13.2"/>
      <path class="cls-3" d="M402.9,98.8c0,11.6-9.3,21-20.8,21s-20.8-9.4-20.8-21,9.3-21,20.8-21,15,4.8,18.4,11.1c.7,1.2,2.4,4.9,2.4,9.8Z"/>
      <ellipse class="cls-1" cx="148.9" cy="157.3" rx="15.5" ry="15.7"/>
    </g>
  </g>
</svg>